HIERARCHY
ROOT Hips
{
	OFFSET 0.00 0.00 0.00
	CHANNELS 6 Xposition Yposition Zposition Xrotation Yrotation Zrotation
	JOINT Spine
	{
		OFFSET 0.00000 1.70439 2.55658
		CHANNELS 3 Xrotation Yrotation Zrotation
		JOINT Spine1
		{
			OFFSET 0.00000 0.59193 3.35699
			CHANNELS 3 Xrotation Yrotation Zrotation
			JOINT Spine2
			{
				OFFSET 0.00000 0.29710 3.39581
				CHANNELS 3 Xrotation Yrotation Zrotation
				JOINT Spine3
				{
					OFFSET 0.00000 0.00000 3.40878
					CHANNELS 3 Xrotation Yrotation Zrotation
					JOINT Neck
					{
						OFFSET 0.00000 -1.27828 8.94804
						CHANNELS 3 Xrotation Yrotation Zrotation
						JOINT Head
						{
							OFFSET 0.00000 -0.81390 4.61586
							CHANNELS 3 Xrotation Yrotation Zrotation
							End Site
							{
								OFFSET 0.00000 0.00001 5.51796
							}
						}
					}
					JOINT RightShoulder
					{
						OFFSET -1.18875 -1.98124 6.41925
						CHANNELS 3 Xrotation Yrotation Zrotation
						JOINT RightArm
						{
							OFFSET -5.90412 0.00000 0.00000
							CHANNELS 3 Xrotation Yrotation Zrotation
							JOINT RightForeArm
							{
								OFFSET -11.94674 0.00000 0.00000
								CHANNELS 3 Xrotation Yrotation Zrotation
								JOINT RightHand
								{
									OFFSET -10.17720 0.00000 0.00000
									CHANNELS 3 Xrotation Yrotation Zrotation
									JOINT RightHandEnd
									{
										OFFSET -2.84518 0.00000 0.00000
										CHANNELS 3 Xrotation Yrotation Zrotation
										End Site
										{
											OFFSET -2.84518 0.00000 0.00000
										}
									}
									JOINT RightHandThumb1
									{
										OFFSET -1.13807 -1.89679 -0.75871
										CHANNELS 3 Yrotation Xrotation Zrotation
										End Site
										{
											OFFSET -2.74823 -0.73639 0.00000
										}
									}
								}
							}
						}
					}
					JOINT LeftShoulder
					{
						OFFSET 1.18875 -1.98124 6.41925
						CHANNELS 3 Xrotation Yrotation Zrotation
						JOINT LeftArm
						{
							OFFSET 5.90412 0.00000 0.00000
							CHANNELS 3 Xrotation Yrotation Zrotation
							JOINT LeftForeArm
							{
								OFFSET 11.94674 0.00000 0.00000
								CHANNELS 3 Xrotation Yrotation Zrotation
								JOINT LeftHand
								{
									OFFSET 10.17720 0.00000 0.00000
									CHANNELS 3 Xrotation Yrotation Zrotation
									JOINT LeftHandEnd
									{
										OFFSET 2.84518 0.00000 0.00000
										CHANNELS 3 Xrotation Yrotation Zrotation
										End Site
										{
											OFFSET 2.84518 0.00000 0.00000
										}
									}
									JOINT LeftHandThumb1
									{
										OFFSET 1.13807 -1.89679 -0.75871
										CHANNELS 3 Yrotation Xrotation Zrotation
										End Site
										{
											OFFSET 2.74823 -0.73639 0.00000
										}
									}
								}
							}
						}
					}
				}
			}
		}
	}
	JOINT RightUpLeg
	{
		OFFSET -3.52662 0.00000 -1.03025
		CHANNELS 3 Xrotation Yrotation Zrotation
		JOINT RightLeg
		{
			OFFSET 0.00001 0.00000 -17.80159
			CHANNELS 3 Xrotation Yrotation Zrotation
			JOINT RightFoot
			{
				OFFSET 0.00001 0.00000 -16.85992
				CHANNELS 3 Xrotation Yrotation Zrotation
				JOINT RightToeBase
				{
					OFFSET 0.00000 -5.42953 -1.97619
					CHANNELS 3 Xrotation Yrotation Zrotation
					End Site
					{
						OFFSET 0.00000 -2.85300 -0.00000
					}
				}
			}
		}
	}
	JOINT LeftUpLeg
	{
		OFFSET 3.52662 0.00000 -1.03025
		CHANNELS 3 Xrotation Yrotation Zrotation
		JOINT LeftLeg
		{
			OFFSET 0.00001 0.00000 -17.80159
			CHANNELS 3 Xrotation Yrotation Zrotation
			JOINT LeftFoot
			{
				OFFSET 0.00001 0.00000 -16.85992
				CHANNELS 3 Xrotation Yrotation Zrotation
				JOINT LeftToeBase
				{
					OFFSET 0.00000 -5.42953 -1.97619
					CHANNELS 3 Xrotation Yrotation Zrotation
					End Site
					{
						OFFSET 0.00000 -2.85300 -0.00000
					}
				}
			}
		}
	}
}
MOTION
Frames: 12
Frame Time: 0.008342
 -1.0847 -100.2358 37.6431 1.5471 2.0463 -174.2397 1.2667 0.9309 -0.5332 0.6552 0.0865 -0.0563 -0.0873 -1.2097 -0.6036 -0.5876 0.0283 0.4004 1.9634 1.0654 -2.2949 -0.0417 0.7694 -1.1198 -3.7083 12.1709 -1.9219 2.3064 1.2399 -4.2287 0.0000 0.0000 10.1196 -0.9731 16.0290 -5.6250 -0.0000 -0.0000 0.0000 -0.0000 -0.0000 0.0000 -10.4560 -9.5150 -2.9377 13.7771 3.7529 3.9615 -0.0000 -0.0000 -11.7991 -9.5155 -17.3250 0.7165 0.0000 -0.0000 -0.0000 0.0000 0.0000 0.0000 1.4083 3.9159 -37.2488 12.9953 0.0000 0.0000 -13.5522 -2.4120 4.8083 2.3897 0.0000 0.0000 1.3875 -1.2535 10.4175 11.6442 0.0000 0.0000 -8.4096 6.4034 4.7653 -3.0810 0.0000 -0.0000
 -1.0942 -100.2348 37.6429 1.5509 2.0393 -174.1994 1.2595 0.9195 -0.5333 0.6547 0.0846 -0.0582 -0.0870 -1.1976 -0.6293 -0.5866 0.0357 0.3911 1.9727 1.0665 -2.3075 -0.0369 0.7629 -1.1243 -3.7411 12.1645 -1.9524 2.3435 1.2305 -4.2475 0.0000 0.0000 10.1288 -0.9699 15.9431 -5.6672 0.0000 0.0000 0.0000 -0.0000 -0.0000 0.0000 -10.4668 -9.5106 -2.9391 13.7945 3.7942 3.9412 -0.0000 -0.0000 -11.7947 -9.5053 -17.3330 0.7108 0.0000 -0.0000 0.0000 -0.0000 -0.0000 -0.0000 1.4239 3.9137 -37.2371 12.9815 0.0000 0.0000 -13.5478 -2.4024 4.7635 2.3818 0.0000 0.0000 1.3692 -1.2441 10.3281 11.6841 0.0000 0.0000 -8.4344 6.3747 4.8099 -3.0901 0.0000 -0.0000
 -1.1064 -100.2332 37.6428 1.5622 2.0285 -174.1461 1.2555 0.9022 -0.5343 0.6535 0.0836 -0.0594 -0.0854 -1.1837 -0.6636 -0.5851 0.0452 0.3799 1.9853 1.0660 -2.3242 -0.0305 0.7548 -1.1297 -3.7810 12.1554 -1.9944 2.3902 1.2186 -4.2679 0.0000 0.0000 10.1390 -0.9679 15.8366 -5.7187 0.0000 0.0000 -0.0000 0.0000 -0.0000 0.0000 -10.4761 -9.5043 -2.9427 13.8114 3.8493 3.9146 -0.0000 -0.0000 -11.7911 -9.4863 -17.3398 0.7086 -0.0000 -0.0000 -0.0000 -0.0000 -0.0000 -0.0000 1.4534 3.9069 -37.2285 12.9589 0.0000 0.0000 -13.5392 -2.3936 4.7096 2.3727 0.0000 0.0000 1.3531 -1.2349 10.2143 11.7341 0.0000 0.0000 -8.4670 6.3350 4.8637 -3.1012 0.0000 -0.0000
 -1.1213 -100.2311 37.6425 1.5824 2.0201 -174.0813 1.2560 0.8853 -0.5356 0.6518 0.0823 -0.0619 -0.0823 -1.1679 -0.7024 -0.5829 0.0576 0.3652 2.0015 1.0633 -2.3443 -0.0226 0.7456 -1.1353 -3.8250 12.1446 -2.0480 2.4396 1.2029 -4.2870 0.0000 0.0000 10.1488 -0.9675 15.7130 -5.7787 -0.0000 0.0000 -0.0000 0.0000 -0.0000 0.0000 -10.4817 -9.4965 -2.9480 13.8276 3.9187 3.8807 -0.0000 -0.0000 -11.7883 -9.4632 -17.3453 0.7085 0.0000 0.0000 -0.0000 0.0000 0.0000 0.0000 1.4968 3.9044 -37.2273 12.9327 0.0000 0.0000 -13.5305 -2.3868 4.6520 2.3644 0.0000 0.0000 1.3440 -1.2185 10.0757 11.7880 0.0000 0.0000 -8.5033 6.2837 4.9285 -3.1128 0.0000 -0.0000
 -1.1384 -100.2284 37.6420 1.6115 2.0106 -174.0068 1.2603 0.8663 -0.5373 0.6500 0.0793 -0.0644 -0.0776 -1.1492 -0.7492 -0.5797 0.0709 0.3510 2.0217 1.0581 -2.3671 -0.0142 0.7346 -1.1402 -3.8736 12.1325 -2.1086 2.4891 1.1836 -4.3074 0.0000 0.0000 10.1592 -0.9673 15.5770 -5.8461 0.0000 0.0000 0.0000 0.0000 0.0000 0.0000 -10.4812 -9.4861 -2.9551 13.8406 4.0006 3.8407 -0.0000 -0.0000 -11.7875 -9.4310 -17.3485 0.7128 0.0000 0.0000 0.0000 -0.0000 0.0000 -0.0000 1.5546 3.9004 -37.2328 12.8998 0.0000 0.0000 -13.5193 -2.3829 4.5914 2.3565 0.0000 0.0000 1.3415 -1.2004 9.9201 11.8469 0.0000 0.0000 -8.5444 6.2224 4.9979 -3.1263 0.0000 -0.0000
 -1.1574 -100.2257 37.6414 1.6395 2.0029 -173.9265 1.2582 0.8477 -0.5384 0.6474 0.0774 -0.0683 -0.0686 -1.1315 -0.7942 -0.5754 0.0876 0.3319 2.0453 1.0492 -2.3925 -0.0067 0.7229 -1.1435 -3.9216 12.1173 -2.1797 2.5291 1.1628 -4.3202 0.0000 0.0000 10.1646 -0.9660 15.4342 -5.9156 0.0000 0.0000 0.0000 0.0000 -0.0000 0.0000 -10.4751 -9.4724 -2.9645 13.8523 4.0925 3.7952 -0.0000 -0.0000 -11.7883 -9.3993 -17.3523 0.7170 0.0000 -0.0000 -0.0000 -0.0000 -0.0000 0.0000 1.6124 3.9011 -37.2410 12.8676 0.0000 0.0000 -13.5096 -2.3815 4.5275 2.3514 0.0000 0.0000 1.3366 -1.1765 9.7524 11.9077 0.0000 0.0000 -8.5877 6.1525 5.0713 -3.1400 0.0000 -0.0000
 -1.1776 -100.2225 37.6406 1.6762 1.9967 -173.8433 1.2600 0.8301 -0.5400 0.6444 0.0742 -0.0718 -0.0572 -1.1127 -0.8428 -0.5698 0.1041 0.3151 2.0728 1.0378 -2.4195 -0.0003 0.7098 -1.1445 -3.9691 12.1024 -2.2536 2.5570 1.1392 -4.3301 0.0000 0.0000 10.1669 -0.9630 15.2909 -5.9850 0.0000 0.0000 -0.0000 0.0000 0.0000 0.0000 -10.4606 -9.4555 -2.9763 13.8584 4.1933 3.7467 -0.0000 -0.0000 -11.7928 -9.3643 -17.3542 0.7243 -0.0000 -0.0000 0.0000 -0.0000 0.0000 0.0000 1.6819 3.9039 -37.2585 12.8334 0.0000 0.0000 -13.5001 -2.3849 4.4690 2.3498 0.0000 0.0000 1.3425 -1.1501 9.5835 11.9662 0.0000 0.0000 -8.6318 6.0772 5.1408 -3.1533 0.0000 -0.0000
 -1.1986 -100.2191 37.6396 1.7174 1.9932 -173.7617 1.2617 0.8143 -0.5418 0.6399 0.0706 -0.0717 -0.0413 -1.0924 -0.8966 -0.5626 0.1188 0.3027 2.1042 1.0236 -2.4480 0.0031 0.6957 -1.1421 -4.0104 12.0880 -2.3318 2.5638 1.1136 -4.3305 0.0000 0.0000 10.1621 -0.9569 15.1544 -6.0491 0.0000 0.0000 -0.0000 0.0000 0.0000 0.0000 -10.4382 -9.4346 -2.9908 13.8596 4.2999 3.6960 -0.0000 -0.0000 -11.8005 -9.3312 -17.3560 0.7327 -0.0000 0.0000 0.0000 -0.0000 0.0000 -0.0000 1.7562 3.9110 -37.2803 12.8010 0.0000 0.0000 -13.4930 -2.3927 4.4150 2.3521 0.0000 0.0000 1.3572 -1.1203 9.4203 12.0182 0.0000 0.0000 -8.6743 5.9995 5.2040 -3.1660 0.0000 -0.0000
 -1.2196 -100.2157 37.6383 1.7599 1.9936 -173.6857 1.2598 0.8031 -0.5424 0.6359 0.0670 -0.0760 -0.0215 -1.0771 -0.9386 -0.5544 0.1358 0.2864 2.1387 1.0058 -2.4756 0.0036 0.6814 -1.1359 -4.0472 12.0728 -2.4050 2.5499 1.0886 -4.3263 0.0000 0.0000 10.1530 -0.9453 15.0301 -6.1078 -0.0000 0.0000 -0.0000 -0.0000 -0.0000 0.0000 -10.4071 -9.4103 -3.0057 13.8549 4.4092 3.6442 -0.0000 -0.0000 -11.8105 -9.3026 -17.3582 0.7408 0.0000 -0.0000 -0.0000 0.0000 -0.0000 0.0000 1.8298 3.9242 -37.3051 12.7739 0.0000 0.0000 -13.4898 -2.4045 4.3681 2.3589 0.0000 0.0000 1.3787 -1.0866 9.2695 12.0616 0.0000 0.0000 -8.7142 5.9225 5.2587 -3.1773 0.0000 -0.0000
 -1.2402 -100.2122 37.6368 1.8076 1.9959 -173.6181 1.2593 0.7941 -0.5431 0.6312 0.0633 -0.0793 0.0013 -1.0636 -0.9775 -0.5446 0.1506 0.2734 2.1766 0.9856 -2.5028 0.0000 0.6663 -1.1256 -4.0759 12.0594 -2.4729 2.5122 1.0634 -4.3152 0.0000 0.0000 10.1382 -0.9294 14.9236 -6.1554 0.0000 -0.0000 -0.0000 0.0000 -0.0000 -0.0000 -10.3688 -9.3825 -3.0222 13.8429 4.5194 3.5937 -0.0000 -0.0000 -11.8234 -9.2816 -17.3616 0.7484 -0.0000 0.0000 0.0000 0.0000 0.0000 0.0000 1.9068 3.9400 -37.3317 12.7505 0.0000 0.0000 -13.4896 -2.4204 4.3296 2.3696 0.0000 0.0000 1.4121 -1.0531 9.1399 12.0950 0.0000 0.0000 -8.7512 5.8495 5.2993 -3.1871 0.0000 -0.0000
 -1.2599 -100.2085 37.6352 1.8613 2.0016 -173.5619 1.2615 0.7891 -0.5434 0.6264 0.0595 -0.0829 0.0274 -1.0529 -1.0097 -0.5338 0.1633 0.2630 2.2164 0.9632 -2.5285 -0.0069 0.6512 -1.1112 -4.0955 12.0479 -2.5329 2.4518 1.0392 -4.2968 0.0000 0.0000 10.1184 -0.9071 14.8376 -6.1918 0.0000 0.0000 -0.0000 0.0000 -0.0000 0.0000 -10.3251 -9.3517 -3.0398 13.8236 4.6286 3.5455 -0.0000 -0.0000 -11.8382 -9.2718 -17.3665 0.7544 0.0000 -0.0000 0.0000 -0.0000 -0.0000 -0.0000 1.9868 3.9600 -37.3577 12.7334 0.0000 0.0000 -13.4937 -2.4396 4.2998 2.3838 0.0000 0.0000 1.4605 -1.0190 9.0356 12.1149 0.0000 0.0000 -8.7840 5.7832 5.3250 -3.1932 0.0000 -0.0000
 -1.2784 -100.2050 37.6334 1.9161 2.0094 -173.5188 1.2622 0.7869 -0.5439 0.6211 0.0561 -0.0847 0.0562 -1.0451 -1.0368 -0.5218 0.1733 0.2564 2.2580 0.9388 -2.5527 -0.0180 0.6367 -1.0936 -4.1062 12.0381 -2.5827 2.3715 1.0176 -4.2724 0.0000 0.0000 10.0957 -0.8810 14.7744 -6.2161 0.0000 0.0000 0.0000 -0.0000 -0.0000 0.0000 -10.2781 -9.3175 -3.0577 13.7964 4.7342 3.5004 -0.0000 -0.0000 -11.8537 -9.2726 -17.3736 0.7581 -0.0000 -0.0000 0.0000 0.0000 -0.0000 0.0000 2.0625 3.9837 -37.3784 12.7247 0.0000 0.0000 -13.5026 -2.4604 4.2761 2.4002 0.0000 0.0000 1.5175 -0.9855 8.9581 12.1233 0.0000 0.0000 -8.8134 5.7248 5.3366 -3.1972 0.0000 -0.0000
